<?xml version="1.0" standalone="no"?>
<!DOCTYPE svg PUBLIC "-//W3C//DTD SVG 20010904//EN"
 "http://www.w3.org/TR/2001/REC-SVG-20010904/DTD/svg10.dtd">
<svg version="1.0" xmlns="http://www.w3.org/2000/svg"
 width="512.000000pt" height="89.000000pt" viewBox="0 0 512.000000 89.000000"
 preserveAspectRatio="xMidYMid meet">

<g transform="translate(0.000000,89.000000) scale(0.100000,-0.100000)"
fill="#000000" stroke="none">
<path d="M430 802 c-73 -40 -77 -150 -7 -192 76 -47 153 -6 164 86 5 46 3 54
-23 83 -37 41 -86 49 -134 23z"/>
<path d="M1187 745 c-53 -18 -85 -51 -98 -98 -24 -89 20 -149 146 -196 110
-42 138 -78 95 -121 -27 -27 -109 -27 -169 0 -53 25 -68 25 -75 3 -12 -37 9
-77 48 -97 54 -26 177 -27 231 0 108 52 115 202 13 264 -18 11 -61 29 -95 41
-77 25 -111 61 -90 93 25 37 80 43 153 17 35 -12 68 -20 74 -16 14 9 13 81 -2
92 -40 31 -168 41 -231 18z"/>
<path d="M1972 718 c-7 -7 -12 -27 -12 -44 0 -37 -22 -64 -51 -64 -17 0 -20
-6 -17 -37 2 -32 7 -39 28 -42 14 -1 28 -8 32 -15 4 -6 8 -57 8 -114 0 -154
24 -186 135 -180 l60 3 0 40 c0 35 -3 40 -22 38 -13 -2 -34 2 -48 7 -24 9 -25
12 -25 110 0 109 -3 104 70 112 21 3 25 9 28 40 3 40 -1 43 -68 50 -21 3 -25
9 -28 43 -2 22 -8 45 -14 52 -13 16 -60 17 -76 1z"/>
<path d="M322 697 c-30 -32 -62 -117 -62 -166 0 -23 8 -48 19 -62 19 -23 20
-23 26 -4 20 58 29 75 56 101 26 25 28 29 13 45 -8 9 -18 38 -22 64 l-7 47
-23 -25z"/>
<path d="M990 580 c-45 -97 -150 -170 -243 -170 -29 0 -127 -39 -127 -51 0
-13 40 -21 76 -14 40 7 48 -11 8 -21 -41 -10 -97 3 -120 29 -14 16 -35 26 -70
30 l-49 6 28 -23 c37 -30 121 -56 208 -63 92 -8 76 -23 -32 -31 -91 -7 -74
-18 31 -21 77 -2 44 -19 -57 -30 -56 -6 -67 -9 -38 -11 22 -1 54 -6 70 -9 26
-7 22 -8 -30 -15 -81 -10 -96 -13 -60 -15 17 0 36 -6 41 -11 16 -16 129 23
190 64 99 67 176 193 195 320 14 89 8 98 -21 36z"/>
<path d="M1607 616 c-68 -15 -80 -24 -75 -62 3 -32 7 -33 105 -19 59 9 103
-10 103 -44 0 -15 -11 -20 -62 -25 -93 -11 -145 -37 -164 -82 -20 -49 -11 -99
26 -136 25 -24 36 -28 85 -28 32 0 69 7 87 16 28 15 32 15 40 0 6 -11 23 -16
49 -16 l40 0 -3 164 c-3 147 -5 166 -23 186 -44 49 -117 65 -208 46z m131
-253 c-3 -33 -8 -41 -42 -57 -35 -17 -42 -18 -65 -5 -32 18 -38 45 -16 69 18
20 39 26 93 29 32 1 33 0 30 -36z"/>
<path d="M4705 616 c-67 -16 -75 -22 -75 -55 0 -43 15 -51 67 -35 26 8 58 14
72 14 37 0 73 -27 69 -52 -3 -18 -12 -21 -63 -25 -111 -7 -157 -36 -171 -107
-7 -42 16 -99 50 -121 32 -21 114 -22 154 -1 27 14 31 14 43 0 8 -10 25 -14
48 -12 l36 3 3 145 c2 122 -1 150 -15 180 -33 64 -122 91 -218 66z m133 -253
c-3 -33 -8 -41 -41 -57 -31 -15 -43 -16 -63 -7 -69 31 -21 101 69 101 38 0 38
0 35 -37z"/>
<path d="M2202 611 c-10 -6 5 -48 63 -179 41 -95 75 -185 75 -201 0 -38 -26
-68 -75 -84 -32 -11 -41 -19 -43 -42 -5 -37 9 -48 62 -48 56 0 90 21 117 75
42 83 199 471 193 479 -3 5 -20 9 -38 9 -46 0 -67 -28 -111 -145 -21 -55 -40
-102 -42 -105 -7 -8 -22 22 -59 120 -21 52 -44 103 -52 113 -16 18 -67 23 -90
8z"/>
<path d="M2680 602 c-29 -14 -35 -22 -33 -46 3 -43 14 -48 62 -31 81 28 156 9
149 -38 -3 -19 -11 -22 -61 -25 -85 -4 -128 -22 -154 -61 -35 -52 -31 -105 11
-147 31 -31 39 -34 93 -34 32 1 69 7 83 15 22 12 27 11 42 -1 9 -9 30 -14 50
-12 l33 3 3 150 c2 136 0 153 -18 183 -11 18 -36 40 -55 48 -49 20 -161 18
-205 -4z m175 -242 c0 -30 -5 -38 -37 -55 -45 -24 -91 -13 -96 24 -6 43 36 70
103 67 27 -1 30 -4 30 -36z"/>
<path d="M3059 604 c-5 -7 -8 -88 -7 -195 l3 -184 45 0 45 0 5 127 c6 147 9
154 92 172 l53 13 0 39 c0 38 -1 39 -38 42 -25 2 -50 -4 -71 -16 -32 -19 -33
-19 -45 -1 -13 21 -65 23 -82 3z"/>
<path d="M3422 599 c-64 -32 -96 -85 -100 -170 -4 -60 -1 -74 22 -113 38 -66
103 -101 181 -100 70 1 109 18 153 68 33 38 52 91 52 146 -1 70 -59 155 -123
179 -48 18 -137 13 -185 -10z m170 -98 c29 -26 33 -36 33 -80 0 -41 -5 -55
-29 -80 -49 -51 -130 -41 -161 19 -28 53 -11 134 32 159 36 21 91 13 125 -18z"/>
<path d="M3861 602 c-74 -37 -95 -115 -52 -186 l23 -36 -21 -26 c-24 -30 -26
-52 -10 -88 10 -21 8 -29 -10 -52 -63 -80 21 -164 164 -164 117 0 185 44 192
126 9 90 -42 124 -185 124 -65 0 -73 2 -70 17 3 15 17 19 74 23 44 3 80 12 98
23 38 25 60 81 52 134 -4 32 -2 43 8 43 23 0 37 26 30 54 l-6 26 -127 0 c-100
0 -133 -4 -160 -18z m141 -79 c22 -20 24 -76 2 -94 -22 -18 -81 -16 -101 4
-22 22 -21 76 2 93 26 19 75 17 97 -3z m42 -336 c18 -30 -24 -57 -88 -57 -66
0 -91 17 -82 54 7 27 7 27 83 24 61 -2 78 -7 87 -21z"/>
<path d="M4191 611 c-12 -8 0 -41 62 -181 43 -95 77 -184 77 -199 -1 -37 -28
-68 -74 -84 -33 -11 -39 -18 -42 -45 -3 -28 0 -34 23 -43 40 -15 88 -3 120 30
38 39 231 507 215 523 -13 13 -76 3 -90 -15 -6 -6 -27 -57 -48 -112 -20 -55
-40 -103 -44 -108 -3 -4 -26 39 -49 97 -54 133 -64 146 -104 146 -18 0 -38 -4
-46 -9z"/>
<path d="M392 557 c-25 -15 -47 -43 -62 -82 -10 -26 -10 -26 22 -19 46 10 123
7 147 -5 13 -8 20 -8 23 -1 2 7 17 4 38 -6 45 -23 127 -29 165 -13 30 12 30
12 -34 25 -61 13 -104 35 -180 89 -37 27 -83 32 -119 12z"/>
<path d="M791 541 c-19 -3 -36 -11 -38 -17 -2 -7 6 -10 23 -6 24 4 25 3 13
-16 -16 -25 -4 -42 15 -21 11 12 32 72 24 68 -2 -1 -18 -4 -37 -8z"/>
</g>
</svg>
